<svg version="1.1" xmlns="http://www.w3.org/2000/svg" xmlns:xlink="http://www.w3.org/1999/xlink" x="0px" y="0px" width="100px" height="100px" viewBox="0 0 100 100" enable-background="new 0 0 100 100" xml:space="preserve">
<path fill="#27A6D1" d="M50,0C22.385,0,0,22.386,0,50c0,27.615,22.386,50,50,50c27.613,0,50-22.385,50-50S77.613,0,50,0z"/>
<path fill="#F3F3F3" d="M25.999,32l-2,40c0,0.825,0.875,13.244,1.467,21.562C32.716,97.654,41.082,100,50,100 c27.613,0,50-22.385,50-50c0-8.698-2.225-16.875-6.131-24h-61.87C28.686,26,25.999,28.688,25.999,32z"/>
<path fill="#DBDADA" d="M68,76L38.088,35l-12.88,12.816l-1.181,23.611l1.478,22.156c5.445,3.066,11.521,5.14,17.987,5.979L68,76z"/>
<path fill="#E7E7E7" d="M23.999,71l1.455,22.558C32.707,97.651,41.076,100,50,100c20.111,0,37.438-11.88,45.375-29H23.999z"/>
<path fill="#CFD0D0" d="M68,76l-3.648-5H24.049l-0.021,0.43l1.479,22.155c5.445,3.067,11.521,5.141,17.987,5.979L68,76z"/>
<path fill="#404F5D" d="M55.479,47.003l-15.461,7.089l12.524,27.906l6.686-5.971l8.779-0.058L55.479,47.003z"/>
<path fill="#53616E" d="M44.074,47.984l14.918,6.89L46.91,81.994l-6.412-6.027l-8.507,0.017L44.074,47.984z"/>
<path fill="#3A4854" d="M55.479,47.003l-15.461,7.089l7.402,16.494c0.861-0.441,1.754-1.076,2.584-1.076 c1.381,0,2.938,1.764,4.229,1.463c1.334-0.311,1.986-2.598,3.189-3.19c1.225-0.604,3.375,0.29,4.428-0.568 c0.748-0.608,0.779-1.963,1.033-3.087L55.479,47.003z"/>
<path fill="#4D5A66" d="M44.074,47.984l-6.959,16.124c0.256,1.127,0.285,2.49,1.037,3.104c1.051,0.857,3.203-0.036,4.428,0.568 c1.203,0.595,1.857,2.882,3.191,3.189c1.293,0.301,2.848-1.462,4.229-1.462c0.678,0,1.396,0.425,2.105,0.821l6.888-15.457 L44.074,47.984z"/>
<path fill="#EEC75E" d="M69,50c0,1.415-2.033,2.577-2.326,3.9c-0.303,1.367,1.027,3.313,0.447,4.549 c-0.59,1.253-2.912,1.396-3.752,2.475c-0.844,1.082-0.467,3.434-1.523,4.297c-1.051,0.859-3.203-0.035-4.426,0.568 c-1.203,0.596-1.857,2.885-3.191,3.193C52.936,69.284,51.381,67.52,50,67.52s-2.938,1.765-4.229,1.463 c-1.334-0.311-1.988-2.6-3.191-3.193c-1.225-0.604-3.377,0.291-4.428-0.568c-1.057-0.863-0.68-3.215-1.522-4.297 c-0.839-1.076-3.162-1.222-3.752-2.475c-0.581-1.233,0.751-3.182,0.448-4.549C33.031,52.577,31,51.415,31,50 c0-1.414,2.032-2.576,2.326-3.9c0.303-1.367-1.028-3.315-0.448-4.548c0.59-1.253,2.913-1.397,3.752-2.474 c0.843-1.083,0.468-3.434,1.522-4.298c1.051-0.859,3.203,0.036,4.428-0.568c1.203-0.596,1.857-2.884,3.191-3.194 c1.291-0.301,2.848,1.465,4.229,1.465s2.936-1.766,4.229-1.465c1.334,0.312,1.988,2.6,3.191,3.194 c1.223,0.604,3.377-0.291,4.426,0.569c1.057,0.863,0.68,3.214,1.523,4.297c0.84,1.076,3.162,1.221,3.752,2.474 c0.58,1.233-0.75,3.181-0.447,4.548C66.967,47.424,69,48.586,69,50z"/>
<path fill="#D8B454" d="M50,36.011c-7.74,0-14.014,6.266-14.014,13.994c0,7.728,6.274,13.994,14.014,13.994 c7.741,0,14.014-6.267,14.014-13.993C64.014,42.277,57.74,36.011,50,36.011z M50,61.01c-6.07,0-10.992-4.928-10.992-11.004 c0-6.078,4.922-11.005,10.992-11.005c6.07,0,10.991,4.927,10.991,11.005C60.99,56.082,56.07,61.01,50,61.01z M50,44 c-3.314,0-6,2.686-6,6c0,3.312,2.686,6,6,6c3.312,0,6-2.688,6-6C56,46.685,53.312,44,50,44z"/>
<path fill="#CDD1D3" d="M99.502,57H81c-1.105,0-2,0.896-2,2s0.895,2,2,2h17.771C99.066,59.686,99.312,58.352,99.502,57z M79,39 c0,1.105,0.895,2,2,2h18.176c-0.246-1.354-0.541-2.688-0.895-4H81C79.895,37,79,37.896,79,39z M79,49c0,1.105,0.895,2,2,2h18.975 L100,50c0-1.008-0.039-2.007-0.098-3H81C79.895,47,79,47.896,79,49z"/>
</svg>