<svg version="1.1" xmlns="http://www.w3.org/2000/svg" xmlns:xlink="http://www.w3.org/1999/xlink" x="0px" y="0px"  width="100px" height="100.002px" viewBox="0 0 100 100.002" enable-background="new 0 0 100 100.002" xml:space="preserve">
<path fill="#2FA9D3" d="M50,0c27.613,0,50,22.387,50,50c0,27.615-22.387,50-50,50C22.386,100,0,77.615,0,50C0,22.387,22.386,0,50,0z "/>
<path fill="#EDEDED" d="M19,25.002h62c1.657,0,3,1.342,3,3v69c0,1.656-1.343,3-3,3H19c-1.657,0-3-1.344-3-3v-69 C16,26.344,17.343,25.002,19,25.002z"/>
<path fill="#344E5C" d="M23,32h54v18H23V32z"/>
<path fill="#B4B9BD" d="M59.488,40.625c0.344-0.15,0.609-0.367,0.801-0.652c0.189-0.285,0.284-0.604,0.284-0.975 c0-0.586-0.206-1.072-0.62-1.455s-0.994-0.576-1.743-0.576c-0.755,0-1.339,0.193-1.748,0.576c-0.41,0.383-0.614,0.867-0.614,1.455 c0,0.344,0.088,0.66,0.266,0.947c0.182,0.289,0.466,0.516,0.854,0.682c-0.45,0.191-0.786,0.467-0.999,0.824 c-0.211,0.354-0.312,0.748-0.312,1.174c0,0.771,0.28,1.381,0.843,1.826c0.477,0.375,1.07,0.562,1.788,0.562 c0.771,0,1.387-0.227,1.853-0.682c0.463-0.455,0.694-1.047,0.694-1.771c0-0.439-0.112-0.83-0.342-1.166 C60.258,41.057,59.926,40.801,59.488,40.625z M57.533,38.424c0.172-0.172,0.402-0.258,0.693-0.258c0.274,0,0.504,0.084,0.674,0.254 s0.254,0.396,0.254,0.68c0,0.306-0.086,0.537-0.258,0.707s-0.4,0.254-0.688,0.254c-0.282,0-0.509-0.084-0.681-0.252 c-0.17-0.168-0.256-0.397-0.256-0.698C57.275,38.822,57.361,38.596,57.533,38.424L57.533,38.424z M59.025,43.465 c-0.203,0.223-0.461,0.334-0.772,0.334c-0.319,0-0.585-0.117-0.798-0.348c-0.213-0.232-0.318-0.562-0.318-0.978 c0-0.297,0.09-0.569,0.271-0.823c0.181-0.257,0.455-0.384,0.822-0.384c0.316,0,0.582,0.111,0.791,0.334 c0.207,0.229,0.312,0.521,0.312,0.894C59.332,42.918,59.23,43.24,59.025,43.465z M65.488,40.625c0.344-0.15,0.609-0.367,0.801-0.652 c0.189-0.285,0.284-0.604,0.284-0.975c0-0.586-0.206-1.072-0.62-1.455s-0.994-0.576-1.743-0.576c-0.755,0-1.339,0.193-1.748,0.576 c-0.41,0.383-0.614,0.867-0.614,1.455c0,0.344,0.088,0.66,0.266,0.947c0.182,0.289,0.466,0.516,0.854,0.682 c-0.45,0.191-0.786,0.467-0.999,0.824c-0.211,0.354-0.312,0.748-0.312,1.174c0,0.771,0.28,1.381,0.843,1.826 c0.477,0.375,1.07,0.562,1.788,0.562c0.771,0,1.387-0.227,1.853-0.682c0.463-0.455,0.694-1.047,0.694-1.771 c0-0.439-0.112-0.83-0.342-1.166C66.258,41.057,65.926,40.801,65.488,40.625L65.488,40.625z M63.533,38.424 c0.172-0.172,0.402-0.258,0.693-0.258c0.274,0,0.504,0.084,0.674,0.254s0.254,0.396,0.254,0.68c0,0.306-0.086,0.537-0.258,0.707 s-0.4,0.254-0.688,0.254c-0.282,0-0.509-0.084-0.681-0.252c-0.17-0.168-0.256-0.397-0.256-0.698 C63.275,38.822,63.361,38.596,63.533,38.424L63.533,38.424z M65.025,43.465c-0.203,0.223-0.461,0.334-0.772,0.334 c-0.319,0-0.585-0.117-0.798-0.348c-0.213-0.232-0.318-0.562-0.318-0.978c0-0.297,0.09-0.569,0.271-0.823 c0.181-0.257,0.455-0.384,0.822-0.384c0.316,0,0.582,0.111,0.791,0.334c0.207,0.229,0.312,0.521,0.312,0.894 C65.332,42.918,65.23,43.24,65.025,43.465z M72.041,37.895c-0.512-0.612-1.167-0.928-1.965-0.928c-0.734,0-1.34,0.246-1.812,0.734 c-0.475,0.488-0.713,1.133-0.713,1.93c0,0.771,0.225,1.394,0.676,1.867c0.448,0.477,0.982,0.717,1.604,0.717 c0.567,0,1.045-0.221,1.424-0.662c-0.062,0.902-0.198,1.498-0.419,1.785c-0.218,0.285-0.48,0.435-0.795,0.435 c-0.247,0-0.445-0.072-0.6-0.222c-0.147-0.143-0.24-0.358-0.276-0.66l-1.461,0.162c0.104,0.65,0.354,1.146,0.729,1.474 c0.381,0.323,0.879,0.485,1.494,0.485c0.854,0,1.551-0.313,2.084-0.953c0.53-0.639,0.801-1.678,0.801-3.112 C72.811,39.527,72.555,38.512,72.041,37.895L72.041,37.895z M70.82,40.766c-0.199,0.23-0.443,0.349-0.734,0.349 c-0.301,0-0.551-0.119-0.752-0.357c-0.2-0.238-0.301-0.61-0.301-1.121c0-0.5,0.093-0.858,0.277-1.082 c0.184-0.221,0.416-0.33,0.69-0.33c0.293,0,0.558,0.138,0.772,0.402c0.228,0.271,0.336,0.646,0.336,1.133 C71.117,40.199,71.02,40.535,70.82,40.766z"/>
<path fill="#E2584C" d="M36,56.002H26c-1.657,0-3,1.342-3,3v10c0,1.656,1.343,3,3,3h10c1.657,0,3-1.344,3-3v-10 C39,57.344,37.657,56.002,36,56.002z M36,75.002H26c-1.657,0-3,1.342-3,3v10c0,1.656,1.343,3,3,3h10c1.657,0,3-1.344,3-3v-10 C39,76.344,37.657,75.002,36,75.002z M55,56.002H45c-1.657,0-3,1.342-3,3v10c0,1.656,1.343,3,3,3h10c1.657,0,3-1.344,3-3v-10 C58,57.344,56.657,56.002,55,56.002z M55,75.002H45c-1.657,0-3,1.342-3,3v10c0,1.656,1.343,3,3,3h10c1.657,0,3-1.344,3-3v-10 C58,76.344,56.657,75.002,55,75.002z"/>
<path fill="#FFFFFF" d="M47,84.002v-2h6v2H47z M51,80.002c0,0.553-0.447,1-1,1c-0.553,0-1-0.447-1-1s0.447-1,1-1 C50.553,79.002,51,79.449,51,80.002z M28,82.002h6v2h-6V82.002z M32,67h-2v-2h-2v-1.998h2v-2h2v2h2V65h-2V67z M50,85.002 c0.553,0,1,0.447,1,1s-0.447,1-1,1c-0.553,0-1-0.447-1-1S49.447,85.002,50,85.002z M47.172,62.588l1.414-1.416L50,62.588 l1.414-1.416l1.414,1.414L51.414,64l1.414,1.416l-1.414,1.414L50,65.416l-1.415,1.414l-1.414-1.414l1.414-1.414L47.172,62.588z"/>
<path fill="#3DB39E" d="M64,56.002h10c1.657,0,3,1.342,3,3v29c0,1.656-1.343,3-3,3H64c-1.656,0-3-1.344-3-3v-29 C61,57.344,62.344,56.002,64,56.002z"/>
<path fill="#FFFFFF" d="M66,70.002v2h6v-2H66z M66,75.002h6v-2h-6V75.002z"/>
<path fill="#349886" d="M74,89.002H64c-1.656,0-3-1.344-3-3v2c0,1.656,1.344,3,3,3h10c1.657,0,3-1.344,3-3v-2 C77,87.658,75.657,89.002,74,89.002z"/> <path fill="#C14B42" d="M55,70.002H45c-1.657,0-3-1.344-3-3v2c0,1.656,1.343,3,3,3h10c1.657,0,3-1.344,3-3v-2 C58,68.658,56.657,70.002,55,70.002z M36,70.002H26c-1.657,0-3-1.344-3-3v2c0,1.656,1.343,3,3,3h10c1.657,0,3-1.344,3-3v-2 C39,68.658,37.657,70.002,36,70.002z M36,89.002H26c-1.657,0-3-1.344-3-3v2c0,1.656,1.343,3,3,3h10c1.657,0,3-1.344,3-3v-2 	C39,87.658,37.657,89.002,36,89.002z M55,89.002H45c-1.657,0-3-1.344-3-3v2c0,1.656,1.343,3,3,3h10c1.657,0,3-1.344,3-3v-2 C58,87.658,56.657,89.002,55,89.002z"/>
<path fill="#DDDDDC" d="M81,98.002H19c-1.657,0-3-1.344-3-3v2c0,1.656,1.343,3,3,3h62c1.657,0,3-1.344,3-3v-2 C84,96.658,82.657,98.002,81,98.002z"/>
</svg>
