<svg version="1.1" xmlns="http://www.w3.org/2000/svg" xmlns:xlink="http://www.w3.org/1999/xlink" x="0px" y="0px"  width="100px" height="100px" viewBox="0 0 100 100" preserveAspectRatio="xMidYMid meet" enable-background="new 0 0 100 100" xml:space="preserve">
<path fill="#F4F0D4" d="M50.001,0c27.574,0,49.931,22.354,49.931,49.931c0,27.575-22.357,49.931-49.931,49.931 S0.071,77.506,0.071,49.931C0.071,22.354,22.426,0,50.001,0z"/>
<path fill="#344E5C" d="M1.529,37.947c-0.946,3.839-1.458,7.85-1.458,11.983c0,27.575,22.355,49.931,49.93,49.931 c27.574,0,49.931-22.355,49.931-49.931c0-4.133-0.512-8.144-1.457-11.983H1.529z"/>
<path fill="#DBD8BD" d="M36.021,34.952l12.981-21.97h2.996l6.99,21.97h-2.994l-5.548-20.118c0,0,0.384,0.146,0.055,0.146 l0.054-0.146L39.017,34.952H36.021z"/>
<path fill="#70838D" d="M64.455,88.207c-0.307,0.303-0.809,0.303-1.119,0l-1.112-1.091c-0.308-0.304-0.809-0.304-1.118,0 l-1.111,1.09c-0.311,0.303-0.812,0.303-1.121-0.001l-1.103-1.086c-0.309-0.305-0.811-0.305-1.121-0.002l-1.106,1.084 c-0.308,0.303-0.811,0.303-1.119,0l-1.106-1.085c-0.31-0.304-0.81-0.304-1.12,0l-1.111,1.09c-0.31,0.303-0.812,0.303-1.12-0.001 l-1.103-1.086c-0.308-0.305-0.811-0.305-1.121-0.002l-1.105,1.084c-0.31,0.303-0.81,0.303-1.12,0l-1.107-1.085 c-0.31-0.304-0.81-0.304-1.12,0l-1.106,1.085c-0.31,0.303-0.811,0.303-1.119,0l-1.107-1.085c-0.309-0.304-0.811-0.304-1.119,0 l-1.114,1.091c-0.309,0.303-0.811,0.303-1.119,0c-0.309-0.302-0.309-0.793,0-1.097l2.237-2.192c0.31-0.303,0.812-0.303,1.121,0.001 l1.103,1.087c0.31,0.304,0.812,0.305,1.121,0.001l1.11-1.089c0.31-0.303,0.812-0.303,1.121,0.001l1.102,1.087 c0.31,0.304,0.812,0.305,1.121,0.001l1.11-1.089c0.31-0.303,0.812-0.303,1.122,0.001l1.102,1.087 c0.309,0.304,0.811,0.305,1.121,0.001l1.106-1.089c0.311-0.303,0.816-0.303,1.125,0.001l1.102,1.087 c0.309,0.304,0.813,0.305,1.121,0.001l1.108-1.089c0.311-0.303,0.814-0.303,1.123,0.001l1.102,1.087 c0.308,0.304,0.812,0.305,1.121,0.001l1.105-1.084c0.308-0.304,0.811-0.304,1.119,0l2.232,2.188 C64.765,87.414,64.765,87.905,64.455,88.207L64.455,88.207z"/>
<path fill="#FFFFFF" d="M39.017,34.952l9.986-21.97h2.996l9.986,21.97h-2.996l-8.542-20.118c0,0,0.384,0.146,0.055,0.146 l0.054-0.146l-8.542,20.118H39.017z"/>
<path fill="#B47E42" d="M50.501,11.983c1.378,0,2.498,1.117,2.498,2.497c0,1.379-1.119,2.497-2.498,2.497 c-1.379,0-2.496-1.118-2.496-2.497C48.005,13.101,49.122,11.983,50.501,11.983z M1.529,37.947h96.946 c-0.25-1.011-0.521-2.011-0.83-2.996H2.36C2.051,35.936,1.778,36.937,1.529,37.947z"/>
<path fill="#C88B49" d="M1.529,37.947c-0.946,3.839-1.458,7.85-1.458,11.983h99.861c0-4.133-0.512-8.144-1.457-11.983H1.529z"/>
<path fill="#CC9457" d="M3.491,42.3c2.025-1.182,3.699-2.668,5.086-4.326h-4.39c-1.075,0.985-2.174,1.89-3.258,2.773 c-0.23,1.235-0.421,2.485-0.559,3.753C1.315,43.714,2.341,42.971,3.491,42.3z M17.812,49.906c0.122-1.221,0.24-2.499,0.358-3.912 c0.233-2.849,0.545-5.515,0.896-8.016h-6.426c-1.867,2.777-4.324,5.331-7.601,7.238c-2.026,1.182-3.665,2.589-4.954,4.1l-0.015,0.59 H17.812z M50.926,40.902c-0.64-0.802-1.121-1.807-1.466-2.926h-0.809c0.852,3.132,2.367,5.794,4.376,7.219 c2.521,1.787,5.572,1.619,9.072-0.503c3.184-1.931,5.416-4.247,6.953-6.716H64.79c-1.371,1.667-3.121,3.105-5.295,4.132 C54.702,44.383,52.069,42.327,50.926,40.902z M98.481,37.976H93.04c0.193,3.767,1.373,7.914,3.238,11.929h3.652 C99.93,45.792,99.42,41.799,98.481,37.976z M92.676,49.906c-1.689-3.994-2.725-8.09-2.871-11.928h-4.482 c0.145,4.5,0.9,8.426,2.033,11.928H92.676z M28.821,46.676c-0.705,0.55-1.703,0.398-2.229-0.339 c-1.433-2.011-1.943-5.018-1.924-8.361h-2.375c-0.376,2.584-0.708,5.346-0.952,8.3c-0.104,1.282-0.216,2.478-0.33,3.628h10.767 c0.428-0.872,0.486-1.991,0.072-3.774c-0.576-2.476-0.668-5.28-0.49-8.155h-3.531c-0.033,2.681,0.32,4.971,1.315,6.369 C29.67,45.081,29.527,46.127,28.821,46.676L28.821,46.676z M77.948,37.976c-1.037,2.975-2.512,5.898-4.617,8.453 c-0.812,0.987-1.486,2.184-2.08,3.476h12.807c-1.047-3.534-1.744-7.471-1.889-11.929H77.948z M58.188,39.072 c0.652-0.31,1.234-0.693,1.799-1.098h-7.061c0.141,0.271,0.268,0.563,0.443,0.784C53.741,39.227,54.874,40.641,58.188,39.072z  M70.918,44.251c1.561-1.892,2.723-4.042,3.602-6.275h-1.812c-1.746,3.541-4.561,6.907-9.008,9.602 c-5.783,3.508-9.967,2.143-12.455,0.376c-2.839-2.011-4.904-5.703-5.888-9.978H40.97c0.399,3.955,1.834,8.048,4.931,11.929h21.895 C68.61,47.745,69.633,45.811,70.918,44.251z M41.905,49.906c-2.561-3.928-3.761-7.997-4.078-11.928h-3.275 c-0.177,2.629-0.117,5.171,0.395,7.363c0.436,1.864,0.45,3.347,0.193,4.565H41.905L41.905,49.906z"/>
<path fill="#2E4652" d="M0.21,52.559c0.041,0.794,0.102,1.582,0.179,2.365H99.75c0.078-0.783,0.146-1.572,0.188-2.365 c-0.049-0.881-0.111-1.757-0.203-2.628H0.411C0.325,50.802,0.258,51.678,0.21,52.559z"/>
<path fill="#D6DBDE" d="M36.434,62.587c0-0.212,0.04-0.409,0.118-0.589c0.079-0.182,0.187-0.34,0.324-0.478 s0.298-0.246,0.483-0.324s0.383-0.118,0.595-0.118l5.951,0.011c0.739,0,1.42,0.107,2.044,0.319 c0.625,0.211,1.164,0.504,1.615,0.879c0.451,0.373,0.803,0.817,1.055,1.337c0.252,0.519,0.377,1.088,0.377,1.708 c0,0.464-0.08,0.905-0.242,1.326c-0.16,0.42-0.387,0.799-0.677,1.137c-0.291,0.339-0.634,0.627-1.031,0.866 s-0.835,0.407-1.313,0.501v0.047c0.588,0.087,1.123,0.248,1.603,0.483c0.479,0.236,0.888,0.535,1.226,0.896 c0.338,0.362,0.599,0.778,0.783,1.25c0.186,0.471,0.276,0.989,0.276,1.555s-0.102,1.127-0.306,1.679 c-0.204,0.555-0.533,1.05-0.984,1.486s-1.033,0.789-1.744,1.06c-0.711,0.272-1.573,0.407-2.586,0.407h-6.045 c-0.212,0-0.41-0.04-0.595-0.118c-0.185-0.079-0.346-0.185-0.483-0.318c-0.138-0.133-0.246-0.292-0.324-0.478 c-0.078-0.184-0.118-0.378-0.118-0.583V62.587z M39.475,63.176v5.244h2.923c0.471,0,0.919-0.049,1.343-0.147 c0.424-0.099,0.794-0.255,1.107-0.472c0.314-0.216,0.564-0.492,0.749-0.83c0.185-0.339,0.276-0.746,0.276-1.226 c0-0.52-0.098-0.943-0.295-1.272c-0.196-0.33-0.457-0.592-0.783-0.784c-0.326-0.192-0.701-0.326-1.125-0.401 c-0.425-0.075-0.869-0.111-1.333-0.111H39.475z M39.475,75.938h2.97c0.652,0,1.228-0.045,1.727-0.136 c0.499-0.09,0.919-0.245,1.261-0.466c0.342-0.22,0.599-0.516,0.772-0.889s0.26-0.84,0.26-1.396c0-0.59-0.114-1.066-0.342-1.433 c-0.229-0.364-0.549-0.649-0.961-0.854c-0.412-0.204-0.908-0.344-1.485-0.419c-0.578-0.074-1.212-0.11-1.903-0.11h-2.298V75.938z" />
<path fill="#D6DBDE" d="M55.325,76.835c-0.023,0.195-0.076,0.369-0.158,0.518c-0.082,0.149-0.188,0.273-0.313,0.371 c-0.124,0.099-0.267,0.173-0.423,0.225c-0.158,0.052-0.315,0.076-0.473,0.076c-0.164,0-0.328-0.026-0.489-0.082 c-0.16-0.055-0.305-0.138-0.43-0.248c-0.126-0.109-0.226-0.247-0.301-0.412c-0.074-0.166-0.112-0.357-0.112-0.577V62.386 c0-0.212,0.04-0.4,0.118-0.565c0.079-0.164,0.183-0.3,0.312-0.405c0.131-0.106,0.278-0.188,0.443-0.242 c0.166-0.055,0.334-0.084,0.506-0.084c0.174,0,0.342,0.029,0.508,0.084c0.164,0.055,0.312,0.136,0.441,0.242 c0.131,0.105,0.234,0.239,0.312,0.399c0.078,0.161,0.117,0.352,0.117,0.571v5.857c0.205-0.283,0.459-0.567,0.761-0.854 c0.302-0.287,0.632-0.526,0.989-0.72c0.358-0.192,0.735-0.338,1.132-0.437c0.397-0.097,0.796-0.146,1.196-0.146 c0.801,0,1.508,0.157,2.122,0.471c0.612,0.314,1.124,0.746,1.537,1.291c0.412,0.547,0.725,1.191,0.938,1.938 c0.212,0.746,0.317,1.504,0.317,2.274c0,0.723-0.099,1.459-0.3,2.209c-0.201,0.752-0.503,1.414-0.908,1.992 c-0.404,0.578-0.911,1.039-1.521,1.385c-0.608,0.346-1.318,0.519-2.127,0.519c-0.848,0-1.632-0.201-2.351-0.602 c-0.72-0.4-1.329-0.97-1.833-1.708c0,0.007,0,0.061,0,0.158c0,0.1,0,0.209,0,0.33c0,0.122-0.002,0.232-0.006,0.33 C55.327,76.774,55.325,76.826,55.325,76.835z M55.383,71.967c0,0.676,0.054,1.266,0.16,1.769c0.105,0.503,0.285,0.952,0.535,1.349 c0.252,0.397,0.587,0.707,1.008,0.931s0.949,0.337,1.586,0.337c0.581,0,1.056-0.139,1.426-0.413 c0.369-0.275,0.659-0.627,0.871-1.055s0.357-0.904,0.437-1.426c0.078-0.522,0.118-1,0.118-1.432c0-0.464-0.049-0.949-0.147-1.456 s-0.264-0.956-0.494-1.349c-0.233-0.394-0.539-0.708-0.92-0.943c-0.382-0.235-0.858-0.354-1.432-0.354 c-0.581,0-1.073,0.108-1.475,0.324c-0.399,0.216-0.724,0.514-0.972,0.891c-0.246,0.376-0.427,0.791-0.536,1.243 C55.438,70.834,55.383,71.362,55.383,71.967z"/>
</svg>