<svg version="1.1" xmlns="http://www.w3.org/2000/svg" xmlns:xlink="http://www.w3.org/1999/xlink" x="0px" y="0px" width="100px" height="100px" viewBox="0 0 100 100" enable-background="new 0 0 100 100" xml:space="preserve">
<path fill="#344E5C" d="M50,0c27.613,0,50,22.386,50,50s-22.387,50-50,50C22.387,100,0,77.614,0,50S22.387,0,50,0z"/>
<g> <path fill="#E85C4E" d="M78.984,27.195c3.035,0,5.519,2.481,5.519,5.518v1.602l-7.666,5.477L50.736,57.77L24.633,39.608V75.93 H22.67c-3.034,0-5.518-2.481-5.518-5.518V32.715c0-3.035,2.483-5.519,5.518-5.519l28.066,20.809l28.246-20.809L78.984,27.195z"/> <polygon fill="#E7E4D7" points="24.635,39.607 24.635,75.93 76.838,75.93 76.838,39.79 50.736,57.77 "/> <polygon fill="#B8B7AE" points="24.635,75.93 50.736,57.77 50.618,57.686 24.635,75.531 "/> 
<polygon fill="#B7B6AD" points="76.838,39.79 76.854,75.93 50.736,57.77 "/> 
<path fill="#B33A30" d="M84.503,34.312l0.011,36.104c-0.133,4.013-1.871,5.445-7.66,5.512l-0.016-36.141l7.668-5.478L84.503,34.312 z"/> <polygon fill="#F8F6ED" points="22.67,27.195 50.736,48.003 78.984,27.195 "/>
</g>
</svg>