<svg version="1.1" xmlns="http://www.w3.org/2000/svg" xmlns:xlink="http://www.w3.org/1999/xlink" x="0px" y="0px" width="100px" height="100px" viewBox="0 0 100 100" enable-background="new 0 0 100 100" xml:space="preserve">
<path fill="#344E5C" d="M50,0C22.386,0,0,22.386,0,50c0,27.616,22.386,50,50,50c27.613,0,50-22.385,50-50C100,22.386,77.613,0,50,0z"/>
<defs><circle id="circle_money" cx="50" cy="50" r="50"/></defs>
<clipPath id="clip_money"><use xlink:href="#circle_money"  overflow="visible"/></clipPath>
<g clip-path="url(#clip_money)">
<path fill="#2C8373" d="M16.613,48.492l37.388-7.451c1.087-0.217,2.146,0.484,2.362,1.564l13.597,67.55 c0.218,1.081-0.485,2.134-1.573,2.35l-37.388,7.452c-1.087,0.216-2.145-0.484-2.362-1.566L15.04,50.842 C14.822,49.761,15.526,48.709,16.613,48.492z"/>
<path fill="#4B9587" d="M52.613,45.809c-0.109-0.543-0.641-0.896-1.188-0.783l-31.617,6.302 c-0.546,0.104-0.899,0.637-0.791,1.18l3.364,16.711c0.109,0.542,0.641,0.896,1.187,0.785c0.546-0.106,0.899-0.638,0.79-1.181 l-3.166-15.729l29.641-5.906L54,62.913c0.107,0.543,0.643,0.895,1.188,0.786c0.545-0.109,0.898-0.639,0.791-1.185 L52.613,45.809z"/>
<path fill="#369685" d="M26.925,37.077l37.942-3.697c1.104-0.104,2.086,0.696,2.193,1.794l6.812,68.566 c0.106,1.098-0.695,2.074-1.8,2.182l-37.942,3.697c-1.104,0.104-2.086-0.695-2.194-1.794l-6.813-68.566 C25.016,38.161,25.821,37.184,26.925,37.077z"/>
<path fill="#52A597" d="M63.014,37.984c-0.056-0.555-0.549-0.953-1.103-0.899L29.824,40.21 c-0.554,0.054-0.959,0.545-0.904,1.097l1.687,16.961c0.055,0.557,0.548,0.955,1.102,0.9c0.554-0.054,0.958-0.544,0.903-1.096 l-1.586-15.965l30.082-2.934l1.588,15.965c0.059,0.555,0.552,0.955,1.104,0.9c0.558-0.055,0.958-0.545,0.903-1.096 L63.014,37.984z"/>
<path fill="#3DB39E" d="M40,26.999h38c1.104,0,2,0.896,2,2v71c0,1.104-0.896,2-2,2H40c-1.104,0-2-0.896-2-2v-71 C38,27.895,38.896,26.999,40,26.999z"/>
<path fill="#82CDC0" d="M59,42.999c1.104,0,2-0.896,2-2s-0.896-2-2-2s-2,0.896-2,2S57.896,42.999,59,42.999z M59,91.999 c1.104,0,2-0.896,2-2s-0.896-2-2-2s-2,0.896-2,2S57.896,91.999,59,91.999z M75,30.999H43c-0.553,0-1,0.448-1,1v18 c0,0.553,0.447,1,1,1s1-0.447,1-1v-17h30v17c0,0.553,0.447,1,1,1s1-0.447,1-1v-18C76,31.447,75.553,30.999,75,30.999z  M75,80.999c-0.553,0-1,0.448-1,1v18H44v-18c0-0.552-0.447-1-1-1s-1,0.448-1,1v19c0,0.552,0.447,1,1,1h32c0.553,0,1-0.448,1-1 v-19C76,81.447,75.553,80.999,75,80.999z M59,50.999c-8.284,0-15,6.716-15,15s6.716,15,15,15s15-6.716,15-15 S67.284,50.999,59,50.999z M67.064,67.02h-1.157c-0.199,1.562-0.839,2.851-1.798,3.515c-0.18,0.116-0.398,0.19-0.639,0.19 c-0.578,0-1.062-0.469-1.062-1.054c0-0.271,0.155-0.546,0.438-0.839c0.602-0.604,1.061-1.619,1.061-2.73 c0-1.615-0.778-2.225-1.577-2.225c-2.615,0-1.396,7.12-6.392,7.12c-2.193,0-3.633-1.365-3.895-3.979H50.93 c-0.521,0-0.938-0.406-0.938-0.916c0-0.484,0.42-0.896,0.938-0.896h1.116c0.239-1.894,1.277-3.374,2.375-4.038 c0.16-0.098,0.358-0.156,0.562-0.156c0.602,0,1.078,0.473,1.078,1.034c0,0.429-0.236,0.663-0.438,0.858 c-0.839,0.814-1.52,1.854-1.52,3.195c0,1.773,0.602,2.637,1.836,2.637c2.916,0,1.578-7.119,6.392-7.119 c1.774,0,3.312,1.092,3.596,3.589h1.138c0.521,0,0.938,0.409,0.938,0.896C68.004,66.607,67.584,67.02,67.064,67.02 L67.064,67.02z"/>
</g>
</svg>