<svg version="1.1" xmlns="http://www.w3.org/2000/svg" xmlns:xlink="http://www.w3.org/1999/xlink" x="0px" y="0px" width="100px" height="100px" viewBox="0 0 100 100" enable-background="new 0 0 100 100" xml:space="preserve">
<path fill="#93D8EF" d="M50,0C22.387,0,0,22.386,0,50c0,27.615,22.387,50,50,50c27.613,0,50-22.385,50-50C100,22.386,77.613,0,50,0z "/>
<path fill="#83C2D8" d="M77.711,53.354H18.602c-2.041,0-3.668,2.438-6.157,4.927c0,0-3.694,4.083-3.694,4.923 c0,0.893,3.694,4.928,3.694,4.928c2.465,2.465,4.116,4.926,6.157,4.926h59.109c2.04,0,3.693-1.653,3.693-3.692V57.05 C81.404,55.007,79.751,53.354,77.711,53.354z M18.602,27.493h59.109c2.04,0,3.668,2.437,6.157,4.926c0,0,3.694,4.082,3.694,4.924 c0,0.894-3.694,4.927-3.694,4.927c-2.466,2.468-4.117,4.928-6.157,4.928H18.602c-2.041,0-3.694-1.655-3.694-3.694V31.19 C14.907,29.146,16.561,27.493,18.602,27.493z"/>
<path fill="#3DB39E" d="M86.376,84.285C76.283,82.229,63.688,81,50,81c-13.688,0-26.283,1.229-36.375,3.285 C22.742,93.955,35.661,100,50,100S77.258,93.955,86.376,84.285z"/>
<path fill="#AD5D32" d="M59.238,18.873c0-2.041-1.652-3.694-3.693-3.694H43.23c-2.041,0-3.694,1.654-3.694,3.694v80.028 c3.208,0.517,4.658,1.1,9.464,1.099c3.861-0.001,6.969-0.256,10.238-0.854V18.873z"/>
<path fill="#B26841" d="M59.238,54.984c-6.403-4.802-13.165-10.142-19.702-17.324v2.304c6.576,6.989,13.33,12.228,19.702,16.979 V54.984z"/>
<path fill="#B26841" d="M49.841,15.179c3.056,7.688,6.208,15.206,9.397,21.864v-3.702c-2.807-6.062-5.439-12.412-7.729-18.163 L49.841,15.179L49.841,15.179z"/>
<path fill="#B26841" d="M59.238,48.824c-4.867-2.917-12.167-10.877-19.702-19.479v2.376c7.562,8.583,14.819,16.342,19.702,18.91 V48.824z"/>
<path fill="#B26841" d="M39.536,60.098c2.205,4.334,4.58,8.17,7.458,11.352c2.222,2.456,5.287,5.34,8.831,8.678 c1.091,1.024,2.239,2.109,3.413,3.225v-2.16l-2.34-2.209c-3.523-3.313-6.565-6.181-8.749-8.591 c-3.373-3.725-6.059-8.444-8.615-13.856L39.536,60.098L39.536,60.098z"/>
<path fill="#B26841" d="M39.646,97.34c0.144,0.246,0.349,0.355-0.109-2.002v3.557c0.091,0.021,0.181,0.046,0.273,0.063l0.213,0.044 c0.1,0.021,0.202,0.034,0.302,0.054C39.958,98.096,39.752,97.589,39.646,97.34z"/>
<path fill="#B26841" d="M55.65,15.188c-0.684,1.979-0.578,5.255,1.472,10.676c0.606,1.607,1.323,3.408,2.116,5.286v-4.161 c-0.219-0.561-0.437-1.106-0.653-1.683c-1.698-4.495-2.167-7.84-1.411-9.732C56.712,15.344,56.199,15.206,55.65,15.188z"/>
<path fill="#B26841" d="M52.209,92.027c-0.484-0.071-1.383,0.022-1.947,1.396c-0.492,1.195,0.026,3.573,1.125,6.542 c0.535-0.015,1.07-0.03,1.602-0.062c-1.113-2.832-1.655-4.967-1.278-5.883c0.151-0.377,0.276-0.441,0.274-0.441h0.01 c0.314,0,1.658,1.032,3.879,5.718c0.052,0.11,0.104,0.219,0.152,0.329c0.543-0.065,1.091-0.126,1.627-0.209 C56.029,95.828,53.939,92.266,52.209,92.027z"/>
<path fill="#B26841" d="M49.975,56.136c-1.006-0.216-1.792-0.094-2.335,0.363c-0.871,0.731-1.299,1.794-1.235,3.072 c0.198,4.031,5.326,10.414,12.836,16.197V73.76c-6.49-5.217-11.108-10.936-11.272-14.268c-0.039-0.791,0.181-1.375,0.679-1.792 c0.053-0.047,0.286-0.188,1-0.031c2.03,0.438,5.538,2.64,9.593,5.859V61.58H59.24C55.425,58.626,52.096,56.593,49.975,56.136z"/>
<path fill="#B26841" d="M48.4,90.142c1.934-1.88,3.482-3.078,4.788-2.823c1.424,0.275,2.98,2.362,4.763,6.378 c0.387,0.875,0.815,1.976,1.291,3.251v-4.185c-2.025-4.488-3.759-6.597-5.757-6.985c-1.976-0.383-3.822,0.953-6.17,3.235 c-1.646,1.603-1.264,5.698,0.358,10.929c0.536,0.023,1.075,0.031,1.615,0.041C47.666,95.043,47.179,91.328,48.4,90.142z"/>
<path fill="#B26841" d="M39.536,23.152v2.292c5.496,5.771,6.826,5.762,7.674,5.187c0.917-0.619,1.446-1.976-2.917-10.956 c-0.736-1.517-1.381-2.958-1.991-4.362c-0.521,0.136-0.994,0.384-1.397,0.714c0.606,1.396,1.25,2.827,1.982,4.337 c3.081,6.343,3.406,8.305,3.384,8.878C45.738,29.056,44.084,28.064,39.536,23.152z"/>
<path fill="#B26841" d="M56.543,66.765c-0.195,0.389-0.041,0.858,0.344,1.057c0.774,0.392,1.562,0.862,2.354,1.362V67.33 c-0.552-0.328-1.101-0.633-1.646-0.909C57.209,66.224,56.736,66.379,56.543,66.765z"/>
<path fill="#B26841" d="M43.769,86.359c1.112-3.498,2.715-5.433,4.76-5.753c2.884-0.453,6.755,2.297,10.348,7.352l0.361,0.575 V85.85c-3.74-4.823-7.682-7.305-10.952-6.794c-2.678,0.418-4.7,2.718-6.011,6.824c-1.062,3.333-0.342,8.226,1.377,13.703 c0.558,0.071,1.117,0.139,1.681,0.191C43.551,94.348,42.759,89.529,43.769,86.359z"/>
<path fill="#B26841" d="M59.238,43.998v-3.649c-1.239-2.514-2.797-5.521-4.7-9.148c-2.986-5.691-6.076-11.577-7.368-15.135 l-0.312-0.886h-1.662l0.503,1.422c1.33,3.659,4.442,9.592,7.455,15.329C55.075,35.594,57.543,40.296,59.238,43.998z"/>
<path fill="#9A542D" d="M39.536,18.873v80.028c1.223,0.195,2.406,0.515,3.662,0.64l0.033-80.668c0-2.041,1.654-3.694,3.694-3.694 H43.23C41.19,15.179,39.536,16.833,39.536,18.873z M39.536,53.354h19.702v19.703H39.536V53.354z"/>
<path fill="#9A542D" d="M39.536,27.493h19.702v19.703H39.536V27.493z"/>
<path fill="#9E5B36" d="M39.536,37.66v2.304c2.482,2.639,4.99,5.026,7.492,7.233h2.385C46.114,44.369,42.797,41.245,39.536,37.66z M53.154,31.93c1.923,3.664,4.39,8.366,6.084,12.067v-3.649c-1.237-2.514-2.797-5.521-4.698-9.148 c-0.647-1.235-1.3-2.479-1.938-3.707h-1.766C51.594,28.956,52.377,30.449,53.154,31.93z M47.21,30.629 c0.53-0.355,0.921-0.969,0.33-3.136h-1.626c0.311,0.995,0.366,1.501,0.358,1.747c-0.31-0.105-1-0.49-2.409-1.747h-2.302 C45.38,31.191,46.48,31.126,47.21,30.629z M59.238,33.341c-0.896-1.93-1.76-3.889-2.612-5.848h-1.704 c1.426,3.313,2.868,6.523,4.316,9.55V33.341z M57.752,27.493c0.455,1.162,0.95,2.389,1.486,3.656v-3.656H57.752z M39.536,29.347 v2.376c5.374,6.103,10.593,11.773,14.914,15.475h2.464C52.193,43.521,45.955,36.672,39.536,29.347z"/>
<path fill="#8B4C27" d="M39.536,27.493h3.694v19.703h-3.694V27.493z"/>
<path fill="#9E5B36" d="M59.238,56.942v-1.958c-0.713-0.537-1.434-1.08-2.155-1.631H54.51 C56.104,54.589,57.684,55.783,59.238,56.942z M48.151,70.392c-3.373-3.726-6.059-8.445-8.615-13.856v3.562 c2.205,4.336,4.58,8.17,7.458,11.352c0.466,0.517,0.979,1.055,1.517,1.608h2.201C49.768,72.114,48.904,71.224,48.151,70.392z M47.966,59.494c-0.039-0.791,0.182-1.375,0.678-1.792c0.056-0.047,0.287-0.188,1.002-0.031c2.028,0.438,5.538,2.64,9.592,5.859 v-1.948c-3.813-2.955-7.146-4.988-9.264-5.445c-1.006-0.216-1.792-0.094-2.335,0.363c-0.871,0.731-1.299,1.794-1.235,3.072 c0.167,3.41,3.869,8.498,9.543,13.483h2.438C52.35,68.036,48.123,62.676,47.966,59.494L47.966,59.494z M56.543,66.765 c-0.195,0.389-0.041,0.858,0.344,1.057c0.774,0.392,1.562,0.862,2.354,1.362V67.33c-0.552-0.328-1.101-0.633-1.646-0.909 C57.209,66.224,56.736,66.379,56.543,66.765z"/>
<path fill="#8B4C27" d="M39.536,53.354h3.694v19.703h-3.694V53.354z"/>
<path fill="#9E5B36" d="M39.536,31.723c1.243,1.411,2.478,2.797,3.694,4.144v-2.342c-1.219-1.362-2.454-2.76-3.694-4.178V31.723z M39.536,23.152v2.292c1.532,1.606,2.729,2.755,3.694,3.577v-2.105C42.283,26.028,41.08,24.82,39.536,23.152z M46.857,15.179 h-1.662l0.134,0.375c0.464-0.225,0.979-0.357,1.53-0.37L46.857,15.179z M41.564,15.592l-0.01,0.005 c-0.231,0.12-0.447,0.264-0.649,0.428l0,0c0.606,1.396,1.25,2.825,1.982,4.337l0.343,0.716v-2.204c0-0.379,0.073-0.738,0.179-1.083 c-0.385-0.843-0.756-1.67-1.108-2.48C42.043,15.378,41.796,15.474,41.564,15.592z M39.536,39.963 c1.227,1.304,2.459,2.528,3.694,3.717v-2.188c-1.236-1.228-2.47-2.487-3.694-3.832V39.963z M39.536,60.098 c1.164,2.291,2.385,4.434,3.694,6.419v-2.945c-1.295-2.182-2.511-4.53-3.694-7.036V60.098z M43.23,98.173V83.492 c-0.349,0.716-0.671,1.503-0.953,2.389C41.306,88.926,41.823,93.27,43.23,98.173z M39.536,95.338v3.563"/>
<path fill="#EDEDED" d="M19.833,26.262h59.108c2.041,0,3.668,2.438,6.156,4.928c0,0,3.694,4.08,3.694,4.925 c0,0.892-3.694,4.926-3.694,4.926c-2.465,2.465-4.115,4.926-6.156,4.926H19.833c-2.041,0-3.695-1.653-3.695-3.693V29.958 C16.138,27.916,17.792,26.262,19.833,26.262z"/>
<path fill="#EDEDED" d="M78.941,52.122H19.833c-2.041,0-3.668,2.436-6.158,4.926c0,0-3.694,4.082-3.694,4.923 c0,0.894,3.694,4.93,3.694,4.93c2.465,2.465,4.117,4.926,6.158,4.926h59.108c2.041,0,3.695-1.655,3.695-3.695V55.818 C82.637,53.775,80.982,52.122,78.941,52.122z"/>
<path fill="#4782A1" d="M21.027,36.309c0-1.278,0.061-1.711,0.233-2.265c0.443-1.367,1.526-2.055,2.991-2.055 c1.255,0,2.179,0.578,2.597,1.33c0.098,0.171,0.16,0.344,0.16,0.54c0,0.479-0.369,0.812-0.825,0.812 c-0.308,0-0.554-0.123-0.8-0.468c-0.308-0.418-0.603-0.615-1.132-0.615c-0.677,0-1.071,0.357-1.255,0.923 c-0.099,0.31-0.136,0.604-0.136,1.797c0,1.194,0.037,1.489,0.136,1.798c0.184,0.565,0.578,0.924,1.255,0.924 c0.529,0,0.824-0.196,1.132-0.615c0.247-0.345,0.493-0.468,0.8-0.468c0.456,0,0.825,0.333,0.825,0.812 c0,0.196-0.062,0.369-0.16,0.542c-0.418,0.75-1.342,1.329-2.597,1.329c-1.465,0-2.548-0.689-2.991-2.054 C21.088,38.02,21.027,37.589,21.027,36.309z"/> <path fill="#4782A1" d="M28.834,38.598c-0.185-0.591-0.234-1.059-0.234-2.289c0-1.229,0.049-1.696,0.234-2.289 c0.443-1.354,1.587-2.029,3.052-2.029c1.464,0,2.609,0.677,3.052,2.029c0.184,0.592,0.234,1.06,0.234,2.289 c0,1.23-0.05,1.698-0.234,2.289c-0.443,1.354-1.588,2.03-3.052,2.03C30.422,40.628,29.277,39.952,28.834,38.598z M33.203,38.119 c0.099-0.31,0.136-0.729,0.136-1.812s-0.037-1.502-0.136-1.809c-0.185-0.566-0.628-0.911-1.316-0.911 c-0.689,0-1.132,0.345-1.317,0.911c-0.098,0.307-0.135,0.726-0.135,1.809s0.037,1.501,0.135,1.812 c0.185,0.564,0.628,0.91,1.317,0.91C32.575,39.029,33.019,38.685,33.203,38.119z"/>
<path fill="#4782A1" d="M37.047,33.134c0-0.665,0.394-1.084,0.997-1.084c0.542,0,0.837,0.296,1.121,0.938l1.785,4.037h0.049 l1.747-4.037c0.271-0.642,0.566-0.938,1.108-0.938c0.603,0,0.984,0.419,0.984,1.084v6.562c0,0.554-0.333,0.874-0.825,0.874 c-0.492,0-0.824-0.319-0.824-0.874v-4.037h-0.062l-1.293,3.003c-0.258,0.591-0.467,0.763-0.886,0.763 c-0.419,0-0.628-0.172-0.886-0.763l-1.305-3.003h-0.062v4.037c0,0.554-0.344,0.874-0.812,0.874c-0.491,0-0.837-0.319-0.837-0.874 L37.047,33.134L37.047,33.134z"/>
<path fill="#4782A1" d="M46.937,33.134c0-0.665,0.394-1.084,0.996-1.084c0.542,0,0.837,0.296,1.121,0.938l1.785,4.037h0.05 l1.748-4.037c0.271-0.642,0.565-0.938,1.108-0.938c0.603,0,0.983,0.419,0.983,1.084v6.562c0,0.554-0.334,0.874-0.826,0.874 c-0.491,0-0.824-0.319-0.824-0.874v-4.037h-0.061l-1.293,3.003c-0.26,0.591-0.469,0.763-0.888,0.763 c-0.418,0-0.627-0.172-0.886-0.763l-1.304-3.003h-0.063v4.037c0,0.554-0.344,0.874-0.812,0.874c-0.492,0-0.837-0.319-0.837-0.874 L46.937,33.134L46.937,33.134z"/>
<path fill="#4782A1" d="M60.137,38.685l2.609-3.126c0.318-0.382,0.492-0.727,0.492-1.155c0-0.556-0.332-0.96-0.924-0.96 c-0.479,0-0.787,0.247-1.01,0.701c-0.172,0.356-0.433,0.555-0.775,0.555c-0.44,0-0.773-0.31-0.773-0.764 c0-0.062,0.014-0.136,0.023-0.209c0.185-0.897,1.121-1.734,2.609-1.734c1.588,0,2.57,1.033,2.57,2.387 c0,0.8-0.332,1.416-0.852,2.03l-2.2,2.597v0.025h2.351c0.506,0,0.788,0.295,0.788,0.739c0,0.431-0.282,0.726-0.788,0.726h-3.84 c-0.493,0-0.801-0.308-0.801-0.738C59.619,39.398,59.756,39.14,60.137,38.685z"/>
<path fill="#4782A1" d="M66.982,36.309c0-1.76,0.051-2.228,0.174-2.607c0.357-1.083,1.181-1.71,2.535-1.71 c1.354,0,2.178,0.627,2.535,1.71c0.123,0.382,0.172,0.85,0.172,2.607c0,1.761-0.049,2.229-0.172,2.609 c-0.357,1.083-1.182,1.71-2.535,1.71c-1.354,0-2.178-0.627-2.535-1.71C67.033,38.536,66.982,38.069,66.982,36.309z M69.691,39.165 c0.441,0,0.713-0.188,0.838-0.555c0.072-0.223,0.109-0.469,0.109-2.303s-0.037-2.081-0.109-2.302 c-0.125-0.369-0.396-0.553-0.838-0.553c-0.443,0-0.715,0.184-0.838,0.553c-0.072,0.221-0.109,0.468-0.109,2.302 s0.037,2.08,0.109,2.303C68.979,38.979,69.248,39.165,69.691,39.165z"/>
<path fill="#4782A1" d="M76.648,34.106h-0.023l-0.775,0.527c-0.16,0.11-0.344,0.16-0.518,0.16c-0.393,0-0.714-0.308-0.714-0.726 c0-0.261,0.137-0.529,0.432-0.728l1.316-0.911c0.319-0.221,0.651-0.382,1.047-0.382c0.59,0,0.96,0.419,0.96,1.046v6.562 c0,0.564-0.37,0.909-0.861,0.909c-0.506,0-0.861-0.345-0.861-0.909v-5.551L76.648,34.106L76.648,34.106z"/>
<path fill="#8C9599" d="M26.207,65.545l-1.268-4.443h-0.024l-1.243,4.443c-0.186,0.677-0.48,0.947-0.984,0.947 c-0.493,0-0.801-0.271-0.985-0.947l-1.723-6.351c-0.024-0.111-0.049-0.261-0.049-0.357c0-0.492,0.344-0.861,0.885-0.861 c0.431,0,0.739,0.234,0.886,0.837l1.096,4.627h0.025l1.268-4.688c0.148-0.517,0.418-0.775,0.849-0.775 c0.443,0,0.715,0.26,0.862,0.775l1.304,4.688h0.025l1.058-4.627c0.136-0.604,0.456-0.837,0.887-0.837 c0.542,0,0.874,0.37,0.874,0.861c0,0.099-0.025,0.247-0.049,0.357l-1.723,6.351c-0.185,0.677-0.493,0.947-0.985,0.947 C26.686,66.493,26.403,66.223,26.207,65.545z"/>
<path fill="#8C9599" d="M36.317,65.926l-1.402-2.693h-1.231c-0.049,0-0.074,0.023-0.074,0.071v2.229c0,0.579-0.37,0.96-0.898,0.96 c-0.529,0-0.911-0.382-0.911-0.96v-6.685c0-0.479,0.295-0.8,0.787-0.8h2.659c1.723,0,2.855,1.071,2.855,2.599 c0,1.021-0.517,1.833-1.378,2.264l1.218,2.215c0.087,0.161,0.124,0.333,0.124,0.505c0,0.469-0.32,0.862-0.862,0.862 C36.834,66.493,36.527,66.32,36.317,65.926z M36.293,60.659c0-0.642-0.442-1.046-1.133-1.046h-1.477 c-0.049,0-0.074,0.023-0.074,0.072v1.934c0,0.049,0.024,0.074,0.074,0.074h1.477C35.851,61.693,36.293,61.287,36.293,60.659z"/> <path fill="#8C9599" d="M40.224,58.936c0-0.576,0.381-0.96,0.911-0.96c0.517,0,0.899,0.384,0.899,0.96v6.599 c0,0.579-0.382,0.96-0.899,0.96c-0.529,0-0.911-0.382-0.911-0.96V58.936z"/>
<path fill="#8C9599" d="M46.109,65.532v-5.797c0-0.048-0.025-0.073-0.075-0.073H44.62c-0.554,0-0.911-0.333-0.911-0.8 c0-0.479,0.357-0.812,0.911-0.812h4.787c0.554,0,0.912,0.333,0.912,0.812c0,0.467-0.358,0.8-0.912,0.8h-1.416 c-0.049,0-0.074,0.025-0.074,0.073v5.797c0,0.579-0.382,0.96-0.91,0.96C46.49,66.493,46.109,66.111,46.109,65.532z"/>
<path fill="#8C9599" d="M55.087,64.855c0-0.433,0.296-0.765,0.774-0.765c0.309,0,0.592,0.173,0.789,0.493 c0.195,0.32,0.516,0.517,0.947,0.517c0.641,0,1.031-0.454,1.031-1.096c0-0.726-0.504-1.169-1.105-1.169h-0.086 c-0.442,0-0.75-0.295-0.75-0.726c0-0.433,0.308-0.729,0.75-0.729h0.086c0.554,0,0.947-0.394,0.947-1.034 c0-0.591-0.369-0.983-0.937-0.983c-0.493,0-0.728,0.247-0.851,0.505c-0.162,0.32-0.455,0.492-0.764,0.492 c-0.443,0-0.764-0.32-0.764-0.765c0-0.135,0.037-0.281,0.099-0.431c0.308-0.701,1.146-1.255,2.351-1.255 c1.64,0,2.586,0.973,2.586,2.312c0,0.714-0.332,1.33-0.937,1.726v0.022c0.519,0.246,1.097,0.924,1.097,2.021 c0,1.524-1.154,2.56-2.73,2.56c-1.207,0-2.094-0.468-2.45-1.28C55.111,65.139,55.087,64.991,55.087,64.855z"/>
<path fill="#8C9599" d="M62.156,64.327c0-0.308,0.086-0.492,0.281-0.938l2.18-4.874c0.146-0.333,0.419-0.542,0.787-0.542 c0.469,0,0.824,0.333,0.824,0.839c0,0.135-0.037,0.295-0.086,0.404l-2.031,4.469v0.023h1.516c0.048,0,0.074-0.023,0.074-0.074 v-1.105c0-0.542,0.355-0.888,0.836-0.888c0.492,0,0.836,0.346,0.836,0.888v1.105c0,0.051,0.025,0.074,0.074,0.074h0.051 c0.479,0,0.799,0.308,0.799,0.738c0,0.442-0.318,0.751-0.799,0.751h-0.051c-0.049,0-0.074,0.023-0.074,0.071v0.334 c0,0.541-0.344,0.887-0.836,0.887c-0.479,0-0.836-0.346-0.836-0.887V65.27c0-0.048-0.026-0.071-0.074-0.071h-2.521 C62.514,65.201,62.156,64.855,62.156,64.327z"/>
<path fill="#8C9599" d="M70.1,62.234c0-1.762,0.047-2.229,0.172-2.609c0.356-1.083,1.184-1.711,2.535-1.711 c1.354,0,2.178,0.628,2.535,1.711c0.123,0.382,0.172,0.85,0.172,2.609c0,1.759-0.049,2.227-0.172,2.607 c-0.357,1.083-1.182,1.71-2.535,1.71c-1.353,0-2.179-0.628-2.535-1.71C70.146,64.461,70.1,63.994,70.1,62.234z M72.807,65.089 c0.442,0,0.713-0.185,0.836-0.554c0.073-0.221,0.111-0.468,0.111-2.301c0-1.834-0.038-2.081-0.111-2.303 c-0.123-0.37-0.394-0.554-0.836-0.554c-0.443,0-0.714,0.184-0.838,0.554c-0.074,0.223-0.111,0.469-0.111,2.303 c0,1.833,0.037,2.08,0.111,2.301C72.093,64.905,72.361,65.089,72.807,65.089z"/>
</svg>