<svg version="1.1" xmlns="http://www.w3.org/2000/svg" xmlns:xlink="http://www.w3.org/1999/xlink" x="0px" y="0px"  width="100px" height="100px" viewBox="0 0 100 100" enable-background="new 0 0 100 100" xml:space="preserve">
<circle fill="#E2574C" cx="50" cy="50" r="49.75"/>
<defs><circle id="svg-usccard-circle" cx="50" cy="50" r="50"/></defs>
<clipPath id="svg-usccard-clip"><use xlink:href="#svg-usccard-circle" overflow="visible"/></clipPath>
<g clip-path="url(#svg-usccard-clip)">
<path fill="#EFEFEF" d="M-7,23h81c1.657,0,3,1.344,3,3v48c0,1.657-1.343,3-3,3H-7 c-1.657,0-3-1.343-3-3v-48C-10,24.343-8.657,23-7,23z"/>
<path fill="#324D5B" d="M-3.538,31.738c0-1.029-0.582-0.997-1.413-0.997c-0.532,0-0.496-0.812,0.069-0.791 c1.913,0.072,3.818-0.006,5.729-0.006c0.209,0,0.236,0.506,0.16,0.638c0,0.256-0.511,0.16-0.667,0.16 c-1.146,0-1.31,0.553-1.339,1.576c-0.044,1.515-0.032,3.032-0.026,4.546c0.008,2.238-0.339,5.581,2.402,6.336 c2.549,0.703,4.642-1.03,4.866-3.536c0.119-1.328,0.028-2.694,0.028-4.026c0-0.896,0.379-4.897-1.089-4.897 c-0.164,0-0.657,0.094-0.789-0.04c-0.086-0.087-0.088-0.634,0-0.723c0.138-0.14,0.762-0.011,0.921-0.006 C6.081,30,6.851,30.011,7.619,29.997c0.493-0.009,1.563-0.325,1.563,0.335c0,0.811-0.994,0.127-1.457,0.645 c-0.356,0.398-0.244,1.163-0.25,1.644c-0.008,0.729-0.01,1.458-0.01,2.187c0,1.439-0.011,2.89-0.103,4.327 c-0.15,2.364-1.262,4.45-3.688,5.08c-2.383,0.619-5.547,0.061-6.642-2.386c-0.74-1.653-0.571-3.701-0.571-5.46 c0-1.345,0-2.689,0-4.034C-3.538,32.135-3.538,31.937-3.538,31.738z"/>
<path fill="#324D5B" d="M9.74,39.672c0.174,0,0.253,1.036,0.304,1.206c0.186,0.612,0.497,1.234,0.939,1.701 c0.774,0.817,1.99,1.154,3.072,0.845c1.921-0.549,2.443-3.154,0.881-4.418c-1.687-1.366-4.513-1.357-5.558-3.534 c-1.065-2.218,0.021-4.878,2.405-5.583c1.06-0.313,2.286-0.237,3.336,0.08c0.267,0.08,0.777,0.399,1.017,0.154 c0.2-0.086,0.698-0.776,0.698-0.06c0,0.738,0.769,3.272-0.037,3.524c-0.275,0.086-1.226-1.898-1.518-2.207 c-0.752-0.812-2.079-1.095-3.095-0.626c-0.677,0.312-1.211,1.042-1.211,1.803c0,1.4,0.708,2.1,1.939,2.641 c1.174,0.517,2.462,0.724,3.489,1.546c1.02,0.817,1.43,1.966,1.43,3.249c0,2.433-1.733,4.425-4.226,4.425 c-1.13,0-2.267-0.182-3.216-0.833c-0.169-0.116-0.334-0.26-0.528-0.337c-0.332-0.132-0.396,0.391-0.607,0.526 c-0.452,0.289-0.422-0.354-0.398-0.594c0.081-0.812,0.151-1.624,0.228-2.436C9.137,40.177,8.992,39.498,9.74,39.672z"/>
<path fill="#324D5B" d="M31.469,40.869c0.371,0.374-1.682,2.074-1.972,2.283c-1.052,0.757-2.296,1.197-3.592,1.257 c-2.303,0.107-4.666-0.635-6.142-2.486c-3.075-3.857-1.472-10.441,3.383-11.898c1.278-0.384,2.657-0.406,3.964-0.16 c0.545,0.103,1.083,0.253,1.599,0.458c0.185,0.073,1.055,0.624,1.126,0.339c0.131-0.112,0.042-0.556,0.245-0.623 c0.434-0.144,0.496,0.107,0.521,0.441c0.061,0.8,0.171,1.598,0.268,2.395c0.022,0.183,0.341,1.758,0.124,1.813 c-0.337,0.351-0.577-0.033-0.678-0.302c-0.245-0.655-0.589-1.276-1.016-1.831c-1.401-1.823-4.064-2.697-6.132-1.431 c-3.062,1.875-2.781,6.976-1.034,9.618c1.154,1.745,2.955,2.524,4.998,2.202c1.067-0.169,2.096-0.617,2.922-1.317 C30.497,41.252,30.937,40.17,31.469,40.869z"/>
<path fill="#CCD0D2" d="M32.75,49.301h-19c-1.104,0-2,0.896-2,2v4c0,1.104,0.896,2,2,2h19 c1.104,0,2-0.896,2-2v-4C34.75,50.198,33.854,49.301,32.75,49.301z M7.5,49.498h-35c-1.104,0-2,0.896-2,2v4c0,1.104,0.896,2,2,2h35 c1.104,0,2-0.896,2-2v-4C9.5,50.395,8.604,49.498,7.5,49.498z M23.125,60.998h-7c-1.104,0-2,0.896-2,2v4c0,1.104,0.896,2,2,2h7 c1.104,0,2-0.896,2-2v-4C25.125,61.895,24.229,60.998,23.125,60.998z M9,60.998H2c-1.104,0-2,0.896-2,2v4c0,1.104,0.896,2,2,2h7 c1.104,0,2-0.896,2-2v-4C11,61.895,10.104,60.998,9,60.998z"/>
<path fill="#FFFFFF" d="M57.145,41.417c8.48,0,15.355,6.875,15.355,15.357S65.625,72.13,57.145,72.13 c-8.482,0-15.357-6.875-15.357-15.356S48.663,41.417,57.145,41.417z"/>
<path fill="#EFC75E" d="M61.137,61.381h-7.985c-3.393,0-6.143,2.75-6.143,6.143v0.781c2.705,2.38,6.25,3.825,10.136,3.825 c3.885,0,7.43-1.445,10.135-3.825v-0.781C67.279,64.131,64.529,61.381,61.137,61.381z"/>
<path fill="#CBA950" d="M47.008,67.449v0.855c0.486,0.429,0.998,0.828,1.536,1.193v-1.445c0-3.339,2.751-6.047,6.144-6.047v-0.604 h-1.536C49.759,61.402,47.008,64.109,47.008,67.449z"/>
<path fill="#C45B4B" d="M61.904,67.677c0.262-0.05,0.461-0.282,0.461-0.56c0-0.314-0.255-0.568-0.569-0.568 c-0.171,0-0.323,0.074-0.427,0.191c0.02-0.058,0.03-0.119,0.03-0.184c-0.001-0.314-0.255-0.569-0.569-0.569s-0.57,0.255-0.57,0.569 c0,0.064,0.011,0.126,0.031,0.184c-0.105-0.117-0.258-0.191-0.428-0.191c-0.314,0-0.57,0.254-0.57,0.569 c0,0.276,0.199,0.509,0.462,0.559c-0.263,0.051-0.462,0.282-0.462,0.56c0,0.313,0.256,0.568,0.57,0.568 c0.17,0,0.322-0.074,0.428-0.191c-0.02,0.057-0.031,0.119-0.031,0.184c0,0.314,0.256,0.568,0.57,0.568s0.568-0.254,0.568-0.568 c0-0.064-0.01-0.127-0.029-0.184c0.104,0.117,0.256,0.191,0.426,0.191c0.314,0,0.57-0.255,0.57-0.568 C62.365,67.959,62.166,67.727,61.904,67.677z M60.83,68.184c-0.283,0-0.513-0.227-0.513-0.507s0.229-0.507,0.513-0.507 c0.282,0,0.512,0.227,0.512,0.507S61.112,68.184,60.83,68.184z"/>
<path fill="#324D5B" d="M60.118,47.884c0.278-0.505,0.813-1.248,1.635-1.456c1.448-0.368,3.044,0.36,3.829,1.548 c0.787,1.188,1.703,3.599,3.045,4.067c1.047,0.364-2.586,0.828-4.288-0.18c-1.128-0.668-1.72-2.053-2.554-2.16 c-0.303-0.039-0.656,0.015-1.008,0.109c0.027,0.215-0.692,0.125-0.857-0.023C59.254,49.188,59.764,48.668,60.118,47.884z"/>
<path fill="#EFC75E" d="M60.062,48.787c0.595,0,1.075,0.482,1.075,1.076s-0.48,1.074-1.075,1.074c-0.594,0-1.075-0.48-1.075-1.074 C58.986,49.269,59.468,48.787,60.062,48.787z"/>
<path fill="#D07C40" d="M57.145,57.08c3.053,0,5.527,1.788,5.527,3.993s-2.475,3.993-5.527,3.993c-3.054,0-5.529-1.788-5.529-3.993 S54.091,57.08,57.145,57.08z"/>
<path fill="#EFC2B3" d="M57.145,48.787c3.393,0,6.143,2.751,6.143,6.144v2.457c0,3.393-2.75,6.143-6.143,6.143 s-6.144-2.75-6.144-6.143v-2.457C51.001,51.538,53.752,48.787,57.145,48.787z"/>
<path fill="#D7AEA1" d="M56.529,58.924c0-0.34,0.275-0.615,0.615-0.615v-6.757h-5.129c-0.639,0.97-1.015,2.13-1.015,3.379v2.457 c0,3.393,2.751,6.143,6.144,6.143v-3.993C56.805,59.537,56.529,59.263,56.529,58.924z"/>
<path fill="#324D5B" d="M50.996,54.006c0.353,0.004,1.858-0.074,3.344-1.537c0.609,0.602,0.949,1.535,2.809,1.535 c0.389,0,2.805-0.922,3.4-0.922c1.416,0,2.447,0.649,2.74,0.857c-0.479-2.92-3.042-5.152-6.141-5.152 C54.025,48.787,51.447,51.053,50.996,54.006z M54.227,55.852c-0.425,0-0.769,0.344-0.769,0.768s0.344,0.769,0.769,0.769 c0.424,0,0.768-0.344,0.768-0.769C54.994,56.195,54.65,55.852,54.227,55.852z M60.062,55.852c-0.424,0-0.768,0.344-0.768,0.768 s0.344,0.769,0.768,0.769c0.425,0,0.769-0.344,0.769-0.769C60.83,56.195,60.486,55.852,60.062,55.852z"/>
</g>
</svg>