<svg version="1.1" xmlns="http://www.w3.org/2000/svg" xmlns:xlink="http://www.w3.org/1999/xlink" x="0px" y="0px" width="100px" height="99.998px" viewBox="0 0 100 99.998" enable-background="new 0 0 100 99.998" xml:space="preserve">
<path fill="#EEC75E" d="M50,0c27.611,0,50,22.385,50,50c0,27.613-22.389,49.998-50,49.998C22.385,99.998,0,77.613,0,50 C0,22.385,22.385,0,50,0z"/>
<path fill="#D8B454" d="M50.188,41.941c-1.062,0.278-2.151-0.349-2.437-1.402l-6.69-24.877c-0.284-1.057,0.345-2.143,1.406-2.426 l27.895-7.447c10.609,5.021,19.16,13.668,24.07,24.34L50.188,41.941z M28,70.998c-3.011,0-5.809-0.896-8.158-2.422l-3.487,3.486 c-1.229,1.229-3.222,1.229-4.451,0c-1.229-1.229-1.229-3.228,0-4.451l3.495-3.496C13.887,61.773,13,58.992,13,55.998 C13,47.715,19.716,41,28,41s15,6.715,15,14.998C43,64.283,36.283,70.998,28,70.998z"/>
<path fill="#344E5C" d="M51.188,40.941c-1.062,0.278-2.148-0.349-2.438-1.402l-6.69-24.877c-0.284-1.057,0.345-2.143,1.406-2.426 l27.894-7.447c10.608,5.021,19.16,13.668,24.07,24.34L51.188,40.941z"/>
<path fill="#F3F2EF" d="M31,67.998c-3.011,0-5.809-0.896-8.158-2.422l-3.487,3.486c-1.229,1.229-3.222,1.229-4.451,0 c-1.229-1.229-1.229-3.228,0-4.451l3.495-3.496C16.887,58.773,16,55.992,16,52.998C16,44.715,22.716,38,31,38s15,6.715,15,14.998 C46,61.283,39.283,67.998,31,67.998z"/>
<path fill="#9C4A23" d="M31,42c6.075,0,11,4.924,11,10.998c0,6.076-4.925,11-11,11s-11-4.924-11-11C20,46.924,24.924,42,31,42z"/>
<path fill="#E4E6E6" d="M62.902,98.309L49.285,74.747c-0.561-0.965-0.229-2.201,0.739-2.758L86.68,51.27 c0.967-0.561,2.202-0.229,2.762,0.738l7.983,13.812C92.143,81.666,79.157,93.977,62.902,98.309z"/>
<path fill="#D7D8D8" d="M97.322,65.641l-1.021-1.766L56.312,86.9l1.021,1.768L97.322,65.641z M52.227,79.836l1.021,1.766 l39.988-23.021l-1.021-1.768L52.227,79.836z M90.844,78.789c0.854-1.207,1.65-2.451,2.396-3.732l-32.846,18.91l1.021,1.771 L90.844,78.789z"/>
<path fill="#CDD1D3" d="M52.907,67.732c-0.489-0.826-1.474-1.166-2.198-0.761c-0.724,0.408-0.916,1.414-0.429,2.24l2.272,3.854 c0.49,0.824,1.476,1.166,2.199,0.758c0.726-0.408,0.918-1.412,0.429-2.24L52.907,67.732z M58.161,64.768 c-0.489-0.826-1.474-1.168-2.198-0.758c-0.727,0.408-0.918,1.412-0.429,2.24l2.272,3.854c0.485,0.828,1.475,1.166,2.194,0.763 c0.729-0.41,0.918-1.412,0.433-2.24L58.161,64.768z M63.415,61.801c-0.487-0.828-1.476-1.168-2.198-0.758 c-0.726,0.41-0.918,1.412-0.429,2.24l2.272,3.854c0.485,0.828,1.475,1.166,2.196,0.76c0.728-0.407,0.918-1.411,0.431-2.237 L63.415,61.801z M68.67,58.834c-0.488-0.828-1.477-1.168-2.197-0.758c-0.728,0.408-0.918,1.412-0.43,2.24l2.271,3.854 c0.485,0.828,1.475,1.166,2.199,0.758c0.725-0.41,0.916-1.414,0.428-2.238L68.67,58.834z M73.924,55.867 c-0.488-0.828-1.475-1.168-2.199-0.758c-0.724,0.407-0.916,1.409-0.428,2.237l2.271,3.854c0.488,0.828,1.475,1.168,2.199,0.758 c0.727-0.41,0.916-1.412,0.43-2.24L73.924,55.867z M79.176,52.902c-0.486-0.828-1.474-1.168-2.199-0.763 c-0.725,0.41-0.914,1.412-0.428,2.238l2.274,3.854c0.487,0.826,1.474,1.168,2.198,0.76c0.726-0.41,0.916-1.414,0.429-2.24 L79.176,52.902z M86.705,53.787l-2.273-3.854c-0.488-0.823-1.475-1.168-2.199-0.758c-0.724,0.41-0.916,1.412-0.428,2.24l2.273,3.852 c0.486,0.828,1.473,1.166,2.197,0.763C87.002,55.617,87.191,54.615,86.705,53.787z"/>
<path fill="#8C431F" d="M29,45c6.075,0,11,4.924,11,10.998c0,1.605-0.352,3.127-0.97,4.502c1.837-1.967,2.97-4.6,2.97-7.502 C42,46.924,37.075,42,31,42c-4.47,0-8.309,2.67-10.03,6.498C22.977,46.352,25.827,45,29,45z"/>
<path fill="#D1D4D4" d="M50.855,73.746c-0.458-0.793-0.312-1.762,0.289-2.393l-1.123,0.633c-0.97,0.557-1.3,1.793-0.74,2.76 l13.614,23.562c0.646-0.175,1.271-0.377,1.901-0.572L50.855,73.746z"/>
<path fill="#B9BCBE" d="M54.879,80.664l-1.025-1.766l-1.625,0.938l1.021,1.766L54.879,80.664z M63.084,94.773l-1.025-1.769 l-1.662,0.957l1.021,1.771L63.084,94.773z M58.98,87.719l-1.024-1.764L56.311,86.9l1.021,1.768L58.98,87.719z"/> <path fill="#B8BBBD" d="M65.688,65.654l-0.146-0.248l-2.61,1.508l0.133,0.223c0.47,0.793,1.387,1.127,2.101,0.799l0.203-0.112 C65.998,67.373,66.152,66.438,65.688,65.654z M53.273,73.781c0.473,0.266,1.021,0.303,1.479,0.047 c0.729-0.41,0.918-1.414,0.432-2.242l-0.088-0.146l-2.383,1.375L53.273,73.781z M57.809,70.104 c0.488,0.826,1.478,1.166,2.197,0.759c0.729-0.408,0.918-1.412,0.432-2.238l-0.117-0.199l-2.608,1.509L57.809,70.104z M86.705,53.787l-0.266-0.447l-2.61,1.508l0.249,0.422c0.328,0.562,0.879,0.892,1.426,0.927l1.314-0.765 C87.049,54.953,87.025,54.334,86.705,53.787z M70.941,62.686l-0.176-0.297l-2.611,1.513l0.16,0.271 c0.408,0.691,1.162,1.033,1.822,0.896l0.696-0.404C71.279,64.168,71.346,63.369,70.941,62.686z M81.451,56.754l-0.234-0.395 l-2.611,1.508l0.225,0.373c0.354,0.592,0.949,0.928,1.529,0.924l1.156-0.666C81.797,58.006,81.797,57.338,81.451,56.754z M76.197,59.721l-0.205-0.348l-2.611,1.508l0.188,0.322c0.375,0.635,1.039,0.979,1.654,0.922l0.98-0.566 	C76.547,61.064,76.562,60.344,76.197,59.721z"/>
<path fill="#344E5C" d="M55.568,0.316c-1.885,3.434-3.762,6.729-1.588,10.69l1.938-1.18c-1.791-3.267-0.062-5.969,1.738-9.248 C56.969,0.479,56.271,0.395,55.568,0.316z"/> <path fill="#2E4652" d="M72.426,22.088c0.145,0.541,0.699,0.863,1.24,0.719l2.938-0.789c0.541-0.146,0.861-0.7,0.717-1.243 l-0.782-2.945c-0.146-0.543-0.699-0.865-1.24-0.721l-2.938,0.791c-0.541,0.146-0.857,0.703-0.717,1.246L72.426,22.088z M59.557,17.125l-0.785-2.945c-0.146-0.543-0.696-0.862-1.237-0.721l-2.938,0.789c-0.541,0.146-0.861,0.703-0.718,1.246 l0.786,2.947c0.146,0.543,0.697,0.858,1.238,0.719l2.938-0.789C59.383,18.227,59.702,17.668,59.557,17.125z M75.221,12.914 l-0.787-2.947c-0.146-0.541-0.699-0.863-1.24-0.719l-2.938,0.791c-0.541,0.145-0.859,0.703-0.718,1.244l0.787,2.947 c0.146,0.543,0.7,0.86,1.241,0.719l2.938-0.789C75.045,14.016,75.365,13.457,75.221,12.914z M88.088,17.877 c0.105,0.402,0.438,0.68,0.824,0.738c-0.303-0.373-0.607-0.738-0.921-1.104L88.088,17.877z M83.123,15l-2.938,0.791 c-0.539,0.145-0.859,0.703-0.72,1.244l0.787,2.947c0.146,0.543,0.7,0.86,1.24,0.719l2.938-0.789 	c0.539-0.146,0.857-0.703,0.715-1.246l-0.785-2.947C84.219,15.178,83.663,14.855,83.123,15z M46.831,20.547 	c0.146,0.541,0.701,0.863,1.241,0.719l2.938-0.789c0.539-0.146,0.859-0.7,0.717-1.243l-0.785-2.947 c-0.146-0.541-0.699-0.863-1.239-0.719l-2.938,0.786c-0.539,0.146-0.861,0.703-0.717,1.246L46.831,20.547z M77.371,9.178 l0.786,2.947c0.146,0.541,0.7,0.863,1.239,0.719l2.938-0.789l0.129-0.062c-1.555-1.328-3.188-2.566-4.896-3.697 C77.379,8.537,77.284,8.854,77.371,9.178z M53.107,28.334c0.539-0.145,0.858-0.703,0.717-1.246l-0.786-2.945 c-0.146-0.543-0.7-0.862-1.241-0.721l-2.938,0.791c-0.539,0.146-0.86,0.703-0.718,1.244l0.787,2.947 c0.146,0.543,0.701,0.865,1.242,0.719L53.107,28.334z M91.165,25.473l-0.786-2.944c-0.146-0.543-0.699-0.863-1.24-0.722 l-22.518,6.056c-0.541,0.146-0.859,0.701-0.719,1.244l0.787,2.946c0.146,0.541,0.701,0.863,1.242,0.72l22.517-6.054 	C90.988,26.572,91.309,26.016,91.165,25.473z M64.592,24.193c0.146,0.543,0.701,0.86,1.242,0.719l2.938-0.789 	c0.539-0.146,0.861-0.703,0.717-1.246l-0.783-2.945c-0.146-0.543-0.7-0.862-1.239-0.721l-2.938,0.791 c-0.539,0.146-0.858,0.701-0.717,1.244L64.592,24.193z M53.896,31.281l-2.938,0.789c-0.541,0.145-0.859,0.703-0.717,1.246 l0.786,2.94c0.146,0.543,0.697,0.865,1.238,0.719l2.938-0.784c0.541-0.146,0.859-0.703,0.718-1.246L55.135,32 C54.991,31.457,54.438,31.135,53.896,31.281z M56.762,26.299c0.146,0.541,0.699,0.863,1.24,0.719l2.938-0.789 c0.541-0.146,0.86-0.7,0.721-1.243l-0.787-2.945c-0.146-0.543-0.699-0.865-1.24-0.721l-2.938,0.791 c-0.541,0.145-0.86,0.703-0.719,1.244L56.762,26.299z M67.389,15.02l-0.787-2.942c-0.146-0.543-0.699-0.865-1.238-0.721 l-2.938,0.786c-0.537,0.146-0.857,0.703-0.715,1.246l0.785,2.947c0.146,0.541,0.697,0.863,1.238,0.719l2.938-0.789 	C67.213,16.119,67.534,15.562,67.389,15.02z M58.857,34.156c0.146,0.543,0.701,0.865,1.242,0.719l2.938-0.789 	c0.541-0.145,0.861-0.703,0.718-1.246l-0.787-2.942c-0.146-0.543-0.7-0.863-1.239-0.724l-2.938,0.791 c-0.54,0.146-0.857,0.703-0.716,1.244L58.857,34.156z"/>
<path fill="#48606D" d="M73.426,21.088c0.145,0.541,0.699,0.863,1.24,0.719l2.938-0.789c0.541-0.146,0.861-0.7,0.717-1.243 l-0.782-2.945c-0.146-0.543-0.699-0.865-1.24-0.721l-2.938,0.791c-0.541,0.146-0.857,0.703-0.717,1.246L73.426,21.088z M76.221,11.914l-0.787-2.947c-0.146-0.541-0.699-0.863-1.24-0.719l-2.938,0.791c-0.541,0.145-0.859,0.703-0.718,1.244l0.787,2.947 c0.146,0.543,0.7,0.86,1.241,0.719l2.938-0.789C76.045,13.016,76.365,12.457,76.221,11.914z M79.157,11.125 c0.146,0.541,0.7,0.863,1.239,0.719l1.449-0.389c-1.054-0.869-2.146-1.684-3.263-2.465L79.157,11.125z M47.831,19.547 c0.146,0.541,0.701,0.863,1.241,0.719l2.938-0.789c0.539-0.146,0.859-0.7,0.717-1.243l-0.785-2.947 c-0.146-0.541-0.699-0.863-1.239-0.719l-2.938,0.786c-0.539,0.146-0.861,0.703-0.717,1.246L47.831,19.547z M84.725,14.045 c-0.188-0.068-0.394-0.1-0.603-0.045l-2.938,0.791c-0.537,0.145-0.855,0.703-0.717,1.244l0.787,2.947 c0.146,0.543,0.701,0.862,1.241,0.719l2.938-0.789c0.539-0.146,0.856-0.703,0.715-1.246l-0.785-2.947l-0.062-0.125L84.725,14.045z M60.557,16.125l-0.785-2.945c-0.146-0.543-0.696-0.862-1.237-0.721l-2.938,0.789c-0.541,0.146-0.861,0.703-0.718,1.246 l0.786,2.947c0.146,0.543,0.697,0.858,1.238,0.719l2.938-0.789C60.383,17.227,60.702,16.668,60.557,16.125z M92.165,24.473 L91.559,22.2c-0.314-0.479-0.654-0.939-0.988-1.404c-0.141-0.024-0.281-0.024-0.432,0.015l-22.518,6.057 c-0.541,0.145-0.859,0.703-0.719,1.246l0.787,2.942c0.146,0.543,0.701,0.865,1.242,0.724l22.517-6.058 C91.988,25.572,92.309,25.016,92.165,24.473z M65.592,23.193c0.146,0.543,0.701,0.86,1.242,0.719l2.938-0.789 c0.539-0.146,0.861-0.703,0.717-1.246l-0.783-2.945c-0.146-0.543-0.7-0.862-1.239-0.721l-2.938,0.791 c-0.539,0.146-0.858,0.701-0.717,1.244L65.592,23.193z M68.389,14.02l-0.787-2.942c-0.146-0.543-0.699-0.865-1.238-0.721 l-2.938,0.786c-0.537,0.146-0.857,0.703-0.715,1.246l0.785,2.947c0.146,0.541,0.697,0.863,1.238,0.719l2.938-0.789 	C68.213,15.119,68.534,14.562,68.389,14.02z M54.896,30.281l-2.938,0.789c-0.541,0.145-0.858,0.703-0.717,1.246l0.786,2.94 c0.146,0.543,0.697,0.865,1.238,0.719l2.938-0.784c0.541-0.146,0.859-0.703,0.718-1.246L56.135,31 C55.991,30.457,55.438,30.135,54.896,30.281z M51.172,28.123l2.938-0.789c0.541-0.145,0.861-0.703,0.721-1.246l-0.786-2.942 c-0.146-0.543-0.701-0.865-1.242-0.724l-2.938,0.791c-0.539,0.146-0.859,0.703-0.717,1.244l0.787,2.947 C50.075,27.947,50.631,28.27,51.172,28.123z M59.857,33.156c0.146,0.543,0.701,0.865,1.242,0.719l2.938-0.789 c0.541-0.145,0.861-0.703,0.718-1.246l-0.787-2.942c-0.146-0.543-0.7-0.863-1.239-0.724l-2.938,0.791 c-0.541,0.146-0.857,0.703-0.717,1.244L59.857,33.156z M57.762,25.299c0.146,0.541,0.699,0.863,1.24,0.719l2.938-0.789 c0.541-0.146,0.86-0.7,0.721-1.243l-0.787-2.945c-0.146-0.543-0.699-0.865-1.24-0.721l-2.938,0.791 c-0.541,0.145-0.86,0.703-0.719,1.244L57.762,25.299z"/>
</svg>